# xmcd CD database file
#
# Track frame offsets:
#	150
#	21580
#	41962
#	63405
#
# Disc length: 1114 seconds
#
# Revision: 1
# Processed by: cddbd v1.5PL3 Copyright (c) Steve Scherf et al.
# Submitted via: CDex 1.51
#
DISCID=37045804
DTITLE=観月ありさ - Through the Season
DYEAR=1998
DGENRE=JPop
TTITLE0=Through the Season
TTITLE1=Previous days
TTITLE2=Through the Season (Instrumental)
TTITLE3=Previous days (Instrumental)
EXTD=Gatekeepers 21 Single [PCCG-589] YEAR: 1998
EXTT0=
EXTT1=
EXTT2=
EXTT3=
PLAYORDER=
